<svg width="14" height="12" viewBox="0 0 14 12" fill="none" xmlns="http://www.w3.org/2000/svg">
<path d="M9.8001 0.399902C10.3079 0.399824 10.7967 0.592888 11.1673 0.939934C11.538 1.28698 11.7628 1.76202 11.7961 2.2687L11.8001 2.3999V4.4399C12.2288 4.52757 12.6169 4.75334 12.905 5.08264C13.1931 5.41193 13.3653 5.82659 13.3953 6.2631L13.4001 6.3999V11.1999C13.4003 11.2999 13.363 11.3963 13.2957 11.4701C13.2283 11.544 13.1358 11.59 13.0362 11.599C12.9367 11.608 12.8374 11.5795 12.7578 11.5189C12.6783 11.4584 12.6243 11.3703 12.6065 11.2719L12.6001 11.1999V9.1999H1.4001V11.1999C1.40028 11.2999 1.36303 11.3963 1.29569 11.4701C1.22835 11.544 1.13579 11.59 1.03624 11.599C0.936692 11.608 0.83737 11.5795 0.757832 11.5189C0.678295 11.4584 0.624306 11.3703 0.606498 11.2719L0.600098 11.1999V6.3999C0.600004 5.93884 0.759211 5.49191 1.05078 5.13474C1.34234 4.77758 1.74835 4.53211 2.2001 4.4399V2.3999C2.20002 1.89213 2.39308 1.40333 2.74013 1.03267C3.08718 0.661999 3.56222 0.437212 4.0689 0.403902L4.2001 0.399902H9.8001ZM11.4001 5.1999H2.6001C2.30192 5.1999 2.01441 5.31091 1.79361 5.5113C1.57281 5.7117 1.43452 5.98712 1.4057 6.2839L1.4001 6.3999V8.3999H12.6001V6.3999C12.6001 6.10172 12.4891 5.81422 12.2887 5.59342C12.0883 5.37261 11.8129 5.23433 11.5161 5.2055L11.4001 5.1999ZM9.8001 1.1999H4.2001C3.90179 1.19992 3.61418 1.31104 3.39336 1.5116C3.17254 1.71216 3.03434 1.98777 3.0057 2.2847L3.0001 2.3999V4.3999H3.8001V3.9999C3.8001 3.89382 3.84224 3.79207 3.91726 3.71706C3.99227 3.64205 4.09401 3.5999 4.2001 3.5999H6.2001C6.30618 3.5999 6.40793 3.64205 6.48294 3.71706C6.55796 3.79207 6.6001 3.89382 6.6001 3.9999V4.3999H7.4001V3.9999C7.4001 3.89382 7.44224 3.79207 7.51725 3.71706C7.59227 3.64205 7.69401 3.5999 7.8001 3.5999H9.8001C9.90618 3.5999 10.0079 3.64205 10.0829 3.71706C10.158 3.79207 10.2001 3.89382 10.2001 3.9999V4.3999H11.0001V2.3999C11.0001 2.10172 10.8891 1.81422 10.6887 1.59342C10.4883 1.37261 10.2129 1.23433 9.9161 1.2055L9.8001 1.1999Z" fill="#FFFBFB" fill-opacity="0.65"/>
</svg>
