<svg width="33" height="36" viewBox="0 0 33 36" fill="none" xmlns="http://www.w3.org/2000/svg">
<path d="M17.7015 1.24256C17.5881 1.12886 17.4533 1.03864 17.305 0.977088C17.1566 0.915534 16.9976 0.88385 16.837 0.88385C16.6764 0.88385 16.5174 0.915534 16.369 0.977088C16.2207 1.03864 16.086 1.12886 15.9725 1.24256L1.32064 15.8945C1.20733 16.0081 1.11752 16.1429 1.05634 16.2912C0.995167 16.4395 0.963827 16.5985 0.964113 16.7589V33.8528C0.964113 34.1766 1.09275 34.4872 1.32173 34.7162C1.55071 34.9452 1.86128 35.0738 2.18511 35.0738H13.174C13.4979 35.0738 13.8084 34.9452 14.0374 34.7162C14.2664 34.4872 14.395 34.1766 14.395 33.8528V24.0849H19.279V33.8528C19.279 34.1766 19.4076 34.4872 19.6366 34.7162C19.8656 34.9452 20.1762 35.0738 20.5 35.0738H31.4889C31.8127 35.0738 32.1233 34.9452 32.3523 34.7162C32.5813 34.4872 32.7099 34.1766 32.7099 33.8528V16.7589C32.7102 16.5985 32.6789 16.4395 32.6177 16.2912C32.5565 16.1429 32.4667 16.0081 32.3534 15.8945L29.0469 12.5905V4.54901C29.0469 4.22518 28.9183 3.91462 28.6893 3.68564C28.4603 3.45666 28.1498 3.32802 27.8259 3.32802H25.384C25.0601 3.32802 24.7496 3.45666 24.5206 3.68564C24.2916 3.91462 24.163 4.22518 24.163 4.54901V7.70649L17.7015 1.24256ZM3.4061 32.6318V17.2644L16.837 3.83351L30.2679 17.2644V32.6318H21.721V22.8639C21.721 22.5401 21.5923 22.2295 21.3634 22.0005C21.1344 21.7715 20.8238 21.6429 20.5 21.6429H13.174C12.8502 21.6429 12.5396 21.7715 12.3107 22.0005C12.0817 22.2295 11.953 22.5401 11.953 22.8639V32.6318H3.4061Z" fill="#E6E6E6" fill-opacity="0.6"/>
</svg>
